<?xml version="1.0" encoding="UTF-8" standalone="no"?>
<!-- Do not edit this file with editors other than draw.io -->

<svg
   version="1.1"
   width="41"
   height="26"
   viewBox="-0.5 -0.5 41 26"
   content="&lt;mxfile host=&quot;Electron&quot; agent=&quot;Mozilla/5.0 (Windows NT 10.0; Win64; x64) AppleWebKit/537.36 (KHTML, like Gecko) draw.io/27.0.9 Chrome/134.0.6998.205 Electron/35.4.0 Safari/537.36&quot; version=&quot;27.0.9&quot; scale=&quot;1&quot; border=&quot;0&quot;&gt;&#10;  &lt;diagram name=&quot;Page-1&quot; id=&quot;n0OZcgZHxj55q1kZgUS8&quot;&gt;&#10;    &lt;mxGraphModel dx=&quot;480&quot; dy=&quot;279&quot; grid=&quot;1&quot; gridSize=&quot;10&quot; guides=&quot;1&quot; tooltips=&quot;1&quot; connect=&quot;1&quot; arrows=&quot;1&quot; fold=&quot;1&quot; page=&quot;1&quot; pageScale=&quot;1&quot; pageWidth=&quot;850&quot; pageHeight=&quot;1100&quot; math=&quot;0&quot; shadow=&quot;0&quot;&gt;&#10;      &lt;root&gt;&#10;        &lt;mxCell id=&quot;0&quot; /&gt;&#10;        &lt;mxCell id=&quot;1&quot; parent=&quot;0&quot; /&gt;&#10;        &lt;mxCell id=&quot;2&quot; value=&quot;&quot; style=&quot;ellipse;whiteSpace=wrap;html=1;fillColor=none;&quot; vertex=&quot;1&quot; parent=&quot;1&quot;&gt;&#10;          &lt;mxGeometry x=&quot;240&quot; y=&quot;367.5&quot; width=&quot;40&quot; height=&quot;25&quot; as=&quot;geometry&quot; /&gt;&#10;        &lt;/mxCell&gt;&#10;      &lt;/root&gt;&#10;    &lt;/mxGraphModel&gt;&#10;  &lt;/diagram&gt;&#10;&lt;/mxfile&gt;&#10;"
   id="svg7"
   sodipodi:docname="er-attribute.svg"
   inkscape:version="1.4.2 (f4327f4, 2025-05-13)"
   xmlns:inkscape="http://www.inkscape.org/namespaces/inkscape"
   xmlns:sodipodi="http://sodipodi.sourceforge.net/DTD/sodipodi-0.dtd"
   xmlns="http://www.w3.org/2000/svg"
   xmlns:svg="http://www.w3.org/2000/svg">
  <sodipodi:namedview
     id="namedview7"
     pagecolor="#ffffff"
     bordercolor="#000000"
     borderopacity="0.25"
     inkscape:showpageshadow="2"
     inkscape:pageopacity="0.0"
     inkscape:pagecheckerboard="0"
     inkscape:deskcolor="#d1d1d1"
     inkscape:zoom="24.153846"
     inkscape:cx="20.493631"
     inkscape:cy="12.523885"
     inkscape:window-width="1597"
     inkscape:window-height="1703"
     inkscape:window-x="5193"
     inkscape:window-y="0"
     inkscape:window-maximized="0"
     inkscape:current-layer="svg7" />
  <defs
     id="defs1" />
  <g
     data-cell-id="1"
     id="g5"
     transform="translate(0,-0.5)">
    <g
       data-cell-id="YsvUX-ydBZoLg-LKKIOO-1"
       id="g1" />
    <g
       data-cell-id="YsvUX-ydBZoLg-LKKIOO-2"
       id="g3">
      <g
         id="g2">
        <path
           id="ellipse1"
           style="baseline-shift:baseline;display:inline;overflow:visible;vector-effect:none;enable-background:accumulate;stop-color:#000000;stop-opacity:1;opacity:1"
           d="M 20,0 C 14.392709,0 9.3099671,1.4136924 5.59375,3.7363281 1.8775329,6.0589638 -0.5,9.3320443 -0.5,13 c 0,3.667956 2.3775329,6.941036 6.09375,9.263672 C 9.3099671,24.586308 14.392709,26 20,26 25.607291,26 30.690033,24.586308 34.40625,22.263672 38.122467,19.941036 40.5,16.667956 40.5,13 40.5,9.3320443 38.122467,6.0589638 34.40625,3.7363281 30.690033,1.4136924 25.607291,0 20,0 Z m 0,1 C 25.438404,1 30.354594,2.384463 33.876953,4.5859375 37.399312,6.787412 39.5,9.7643964 39.5,13 c 0,3.235604 -2.100688,6.212588 -5.623047,8.414062 C 30.354594,23.615537 25.438404,25 20,25 14.561596,25 9.645406,23.615537 6.1230469,21.414062 2.6006877,19.212588 0.5,16.235604 0.5,13 0.5,9.7643964 2.6006877,6.787412 6.1230469,4.5859375 9.645406,2.384463 14.561596,1 20,1 Z" />
      </g>
    </g>
    <g
       data-cell-id="YsvUX-ydBZoLg-LKKIOO-3"
       id="g4" />
  </g>
</svg>
